<svg width="453" height="146" viewBox="0 0 453 146" fill="none" xmlns="http://www.w3.org/2000/svg">
<path d="M8.928 105V42.696H31.968C39.424 42.696 45.136 44.44 49.104 47.928C53.104 51.416 55.104 56.04 55.104 61.8C55.104 67.464 53.104 72.04 49.104 75.528C45.136 78.984 39.424 80.712 31.968 80.712H20.256V105H8.928ZM42.624 105L26.112 75.816H38.208L57.408 105H42.624ZM20.256 73.128H30.816C34.976 73.128 38.128 72.184 40.272 70.296C42.416 68.376 43.488 65.896 43.488 62.856C43.488 59.752 42.512 57.256 40.56 55.368C38.608 53.448 35.744 52.488 31.968 52.488H20.256V73.128ZM88.0853 106.344C84.1173 106.344 80.4853 105.32 77.1893 103.272C73.8933 101.224 71.2533 98.36 69.2693 94.68C67.2853 90.968 66.2933 86.632 66.2933 81.672C66.2933 76.552 67.2693 72.152 69.2213 68.472C71.2053 64.792 73.8453 61.976 77.1413 60.024C80.4373 58.072 84.0853 57.096 88.0853 57.096C91.7973 57.096 94.9973 57.848 97.6853 59.352C100.405 60.824 102.581 62.84 104.213 65.4C105.877 67.928 106.997 70.792 107.573 73.992C108.149 77.192 108.181 80.488 107.669 83.88H75.3173V77.736H99.6533L97.4453 79.176C97.5413 77.672 97.4613 76.152 97.2053 74.616C96.9813 73.08 96.5333 71.672 95.8613 70.392C95.1893 69.112 94.2293 68.088 92.9813 67.32C91.7653 66.52 90.1973 66.12 88.2773 66.12C85.9733 66.12 84.0213 66.696 82.4213 67.848C80.8213 69 79.6053 70.568 78.7733 72.552C77.9413 74.536 77.5253 76.776 77.5253 79.272V83.784C77.5253 86.408 77.9093 88.728 78.6773 90.744C79.4773 92.76 80.6453 94.344 82.1813 95.496C83.7493 96.648 85.7173 97.224 88.0853 97.224C90.2933 97.224 92.1493 96.712 93.6533 95.688C95.1573 94.664 96.1173 93.128 96.5333 91.08H107.957C107.477 94.088 106.341 96.744 104.549 99.048C102.789 101.32 100.501 103.112 97.6853 104.424C94.8693 105.704 91.6693 106.344 88.0853 106.344ZM139.28 106.344C135.376 106.344 131.744 105.336 128.384 103.32C125.056 101.272 122.352 98.408 120.272 94.728C118.224 91.016 117.2 86.664 117.2 81.672C117.2 76.392 118.224 71.928 120.272 68.28C122.352 64.6 125.056 61.816 128.384 59.928C131.744 58.04 135.376 57.096 139.28 57.096C142.32 57.096 144.992 57.592 147.296 58.584C149.632 59.544 151.616 60.856 153.248 62.52C154.88 64.152 156.16 65.976 157.088 67.992C158.016 70.008 158.608 72.04 158.864 74.088L147.44 74.376C146.928 72.328 145.968 70.632 144.56 69.288C143.184 67.944 141.392 67.272 139.184 67.272C137.36 67.272 135.648 67.784 134.048 68.808C132.448 69.8 131.136 71.352 130.112 73.464C129.12 75.576 128.624 78.312 128.624 81.672C128.624 84.872 129.088 87.544 130.016 89.688C130.976 91.8 132.256 93.4 133.856 94.488C135.456 95.544 137.232 96.072 139.184 96.072C142.064 96.072 144.16 95.384 145.472 94.008C146.784 92.6 147.44 90.728 147.44 88.392H158.864C158.864 91.688 158.112 94.696 156.608 97.416C155.104 100.136 152.896 102.312 149.984 103.944C147.072 105.544 143.504 106.344 139.28 106.344ZM172.428 105V58.248H183.756V105H172.428ZM180.972 84.552C180.972 78.44 181.66 73.384 183.036 69.384C184.412 65.384 186.252 62.424 188.556 60.504C190.892 58.552 193.484 57.576 196.332 57.576C197.1 57.576 197.82 57.624 198.492 57.72C199.196 57.816 199.884 57.96 200.556 58.152L200.364 69.48C199.532 69.288 198.636 69.128 197.676 69C196.716 68.872 195.852 68.808 195.084 68.808C192.588 68.808 190.492 69.416 188.796 70.632C187.132 71.816 185.868 73.576 185.004 75.912C184.172 78.248 183.756 81.128 183.756 84.552H180.972ZM241.124 58.248H252.452V105H241.124V58.248ZM209.156 58.248H220.484V86.856C220.484 89.896 221.236 92.184 222.74 93.72C224.244 95.224 226.308 95.976 228.932 95.976C231.172 95.976 233.204 95.4 235.028 94.248C236.884 93.064 238.356 91.336 239.444 89.064C240.564 86.76 241.124 83.912 241.124 80.52H244.196C244.196 86.216 243.46 90.936 241.988 94.68C240.516 98.424 238.484 101.224 235.892 103.08C233.3 104.936 230.308 105.864 226.916 105.864C223.588 105.864 220.58 105.272 217.892 104.088C215.204 102.904 213.076 101 211.508 98.376C209.94 95.752 209.156 92.296 209.156 88.008V58.248ZM286.047 106.344C283.295 106.344 280.767 105.832 278.463 104.808C276.191 103.784 274.367 102.216 272.991 100.104C271.647 97.992 270.975 95.304 270.975 92.04V46.056H282.303V91.656C282.303 95.496 284.127 97.416 287.775 97.416C288.895 97.416 290.015 97.288 291.135 97.032C292.255 96.776 293.535 96.392 294.975 95.88L296.607 103.848C294.815 104.552 293.071 105.144 291.375 105.624C289.679 106.104 287.903 106.344 286.047 106.344ZM264.447 65.928V58.44H294.975V65.928H264.447Z" fill="#101414"/>
<ellipse cx="376.5" cy="73" rx="76.5" ry="73" fill="#4A90E2"/>
<path d="M317.928 42.696H334.152L351.72 80.808H350.76L368.328 42.696H383.976V105H372.552V55.752H374.28L354.888 98.184H347.496L328.2 55.944H329.256V105H317.928V42.696ZM419.21 106.344C415.242 106.344 411.61 105.32 408.314 103.272C405.018 101.224 402.378 98.36 400.394 94.68C398.41 90.968 397.418 86.632 397.418 81.672C397.418 76.552 398.394 72.152 400.346 68.472C402.33 64.792 404.97 61.976 408.266 60.024C411.562 58.072 415.21 57.096 419.21 57.096C422.922 57.096 426.122 57.848 428.81 59.352C431.53 60.824 433.706 62.84 435.338 65.4C437.002 67.928 438.122 70.792 438.698 73.992C439.274 77.192 439.306 80.488 438.794 83.88H406.442V77.736H430.778L428.57 79.176C428.666 77.672 428.586 76.152 428.33 74.616C428.106 73.08 427.658 71.672 426.986 70.392C426.314 69.112 425.354 68.088 424.106 67.32C422.89 66.52 421.322 66.12 419.402 66.12C417.098 66.12 415.146 66.696 413.546 67.848C411.946 69 410.73 70.568 409.898 72.552C409.066 74.536 408.65 76.776 408.65 79.272V83.784C408.65 86.408 409.034 88.728 409.802 90.744C410.602 92.76 411.77 94.344 413.306 95.496C414.874 96.648 416.842 97.224 419.21 97.224C421.418 97.224 423.274 96.712 424.778 95.688C426.282 94.664 427.242 93.128 427.658 91.08H439.082C438.602 94.088 437.466 96.744 435.674 99.048C433.914 101.32 431.626 103.112 428.81 104.424C425.994 105.704 422.794 106.344 419.21 106.344Z" fill="#101414"/>
</svg>
